<svg viewBox="0 0 56 65" xmlns="http://www.w3.org/2000/svg" fill="none">
  <defs>
    <linearGradient id="fv-g" x1="0" y1="1" x2="1" y2="0">
      <stop offset="0%" stop-color="#7a0000"/>
      <stop offset="100%" stop-color="#e50914"/>
    </linearGradient>
  </defs>
  <path d="M2,2 H54 V40 H30 V63 H2 Z" fill="url(#fv-g)"/>
  <polygon points="2,2 54,40 2,40" fill="rgba(0,0,0,0.22)"/>
  <rect x="6"  y="2" width="9" height="6" rx="1.5" fill="white" opacity="0.9"/>
  <rect x="19" y="2" width="9" height="6" rx="1.5" fill="white" opacity="0.9"/>
  <rect x="32" y="2" width="9" height="6" rx="1.5" fill="white" opacity="0.9"/>
  <rect x="45" y="2" width="9" height="6" rx="1.5" fill="white" opacity="0.9"/>
  <rect x="2" y="11" width="6" height="9" rx="1.5" fill="white" opacity="0.9"/>
  <rect x="2" y="25" width="6" height="9" rx="1.5" fill="white" opacity="0.9"/>
  <rect x="2" y="39" width="6" height="9" rx="1.5" fill="white" opacity="0.9"/>
  <rect x="2" y="53" width="6" height="9" rx="1.5" fill="white" opacity="0.9"/>
  <rect x="48" y="11" width="6" height="9" rx="1.5" fill="white" opacity="0.9"/>
  <rect x="48" y="25" width="6" height="9" rx="1.5" fill="white" opacity="0.9"/>
  <rect x="6"  y="57" width="9" height="6" rx="1.5" fill="white" opacity="0.9"/>
  <rect x="19" y="57" width="9" height="6" rx="1.5" fill="white" opacity="0.9"/>
  <rect x="24" y="44" width="6" height="9" rx="1.5" fill="white" opacity="0.9"/>
</svg>
